<svg width="32" height="32" viewBox="0 0 32 32" fill="none" xmlns="http://www.w3.org/2000/svg">
<path fill-rule="evenodd" clip-rule="evenodd" d="M10.0582 26.6024C11.0102 26.6024 11.7849 27.3757 11.7849 28.3277C11.7849 29.2797 11.0102 30.0544 10.0582 30.0544C9.10618 30.0544 8.33285 29.2797 8.33285 28.3277C8.33285 27.3757 9.10618 26.6024 10.0582 26.6024ZM25.0986 26.6024C26.0519 26.6024 26.8266 27.3757 26.8266 28.3277C26.8266 29.2797 26.0519 30.0544 25.0986 30.0544C24.1466 30.0544 23.3733 29.2797 23.3733 28.3277C23.3733 27.3757 24.1466 26.6024 25.0986 26.6024ZM4.35712 4.01253L7.13045 4.49253C7.57712 4.57119 7.91712 4.94186 7.95578 5.39519L8.26912 9.12986L9.43425 9.13036C9.62438 9.13045 9.81249 9.13053 9.99861 9.13061L12.1377 9.13163C12.3082 9.13172 12.4768 9.1318 12.6435 9.13189L15.0054 9.13318C15.1537 9.13327 15.3003 9.13336 15.4452 9.13345L17.1003 9.1345C17.2314 9.13459 17.3609 9.13468 17.4887 9.13477L18.9444 9.13584C19.0594 9.13593 19.1727 9.13602 19.2846 9.13611L20.5538 9.1372C20.6537 9.13729 20.752 9.13738 20.849 9.13748L21.6832 9.13831C21.7717 9.1384 21.8588 9.13849 21.9446 9.13858L22.9107 9.1397C22.9861 9.1398 23.0601 9.13989 23.133 9.13999L23.9487 9.14113C24.0119 9.14122 24.074 9.14132 24.1349 9.14141L24.6533 9.14228C24.7077 9.14238 24.7609 9.14247 24.8131 9.14257L25.3906 9.14374C25.4348 9.14384 25.478 9.14394 25.5202 9.14403L25.8756 9.14492C25.9124 9.14502 25.9483 9.14512 25.9834 9.14522L26.3644 9.14642C26.3929 9.14652 26.4207 9.14663 26.4478 9.14673L26.6715 9.14764C26.6942 9.14774 26.7163 9.14784 26.7377 9.14794L26.964 9.14918C26.9804 9.14928 26.9963 9.14938 27.0116 9.14949L27.1349 9.15042C27.1471 9.15053 27.1588 9.15063 27.17 9.15074L27.2588 9.15168C27.2674 9.15179 27.2755 9.1519 27.2833 9.152L27.3437 9.15296C27.3494 9.15307 27.3548 9.15317 27.3599 9.15328L27.3981 9.15425C27.4016 9.15435 27.4048 9.15446 27.4079 9.15457L27.4356 9.15588C27.4373 9.15599 27.4388 9.1561 27.4403 9.15621C27.4533 9.15742 27.4552 9.15764 27.4571 9.15786C28.1998 9.26586 28.8531 9.65386 29.2985 10.2512C29.7438 10.8472 29.9305 11.5819 29.8238 12.3179L28.5584 21.0619C28.3198 22.7259 26.8745 23.9805 25.1945 23.9805H10.6331C8.87712 23.9805 7.39045 22.6099 7.24778 20.8565L6.02645 6.33119L4.01712 5.98453C3.47178 5.88853 3.10778 5.37253 3.20112 4.82719C3.29712 4.28186 3.82378 3.92719 4.35712 4.01253ZM9.16676 11.1303L8.43712 11.1299L9.24112 20.6925C9.29978 21.4285 9.90112 21.9805 10.6358 21.9805H25.1918C25.8864 21.9805 26.4798 21.4632 26.5785 20.7765L27.8451 12.0312C27.8745 11.8232 27.8225 11.6152 27.6958 11.4472C27.5704 11.2779 27.3864 11.1685 27.1784 11.1392C27.1688 11.1396 27.1458 11.1399 27.11 11.1402L26.965 11.141C26.9347 11.1412 26.9013 11.1413 26.865 11.1414L26.1096 11.1425C26.0459 11.1426 25.9797 11.1426 25.9109 11.1426L24.135 11.1426C24.0359 11.1425 23.9349 11.1425 23.8321 11.1425L21.8053 11.1412C21.6839 11.1411 21.5611 11.141 21.4371 11.1409L20.2903 11.14C20.1597 11.1399 20.028 11.1398 19.8955 11.1397L18.6808 11.1386C18.5436 11.1385 18.4057 11.1384 18.2673 11.1383L17.4305 11.1375C17.2901 11.1374 17.1493 11.1372 17.0082 11.1371L15.7312 11.1359C15.5889 11.1358 15.4464 11.1356 15.3039 11.1355L14.4497 11.1347C14.3076 11.1346 14.1656 11.1344 14.0238 11.1343L13.1769 11.1335C13.0364 11.1334 12.8964 11.1333 12.7568 11.1332L11.5162 11.1321C11.3803 11.132 11.2451 11.1319 11.1107 11.1318L9.54284 11.1306C9.41631 11.1305 9.29092 11.1304 9.16676 11.1303ZM23.0503 14.0583C23.6023 14.0583 24.0503 14.5063 24.0503 15.0583C24.0503 15.6103 23.6023 16.0583 23.0503 16.0583H19.3543C18.801 16.0583 18.3543 15.6103 18.3543 15.0583C18.3543 14.5063 18.801 14.0583 19.3543 14.0583H23.0503Z" fill="white"/>
</svg>
